<svg xmlns="http://www.w3.org/2000/svg" shape-rendering="geometricPrecision" text-rendering="geometricPrecision" image-rendering="optimizeQuality" fill-rule="evenodd" clip-rule="evenodd" viewBox="0 0 512 391.954"><path d="M234.469 13.676v93.312c0 7.529-6.147 13.676-13.676 13.676h-52.664l8.36 20.929h127.056v-28.146c0-15.477 12.345-28.193 27.68-28.794V64.724h.018v-.106c.048-3.396 2.098-6.126 4.79-7.936 2.307-1.55 5.237-2.473 7.589-2.473h.079c1.256 0 2.391.523 3.197 1.364a9.111 9.111 0 016.717-2.953h57.466a9.109 9.109 0 016.717 2.953 4.414 4.414 0 013.197-1.364l.078.001c2.353-.001 5.283.922 7.589 2.472 2.692 1.809 4.742 4.54 4.79 7.936v.106h.018v19.929c15.336.603 27.681 13.317 27.681 28.794v28.146h30.772c11.049 0 20.077 9.028 20.077 20.078 0 11.05-9.027 20.077-20.077 20.077h-15.777v206.267a3.939 3.939 0 01-3.938 3.939H39.793a3.94 3.94 0 01-3.939-3.939V181.748H20.078c-5.526 0-10.546-2.258-14.183-5.895C2.258 172.216 0 167.195 0 161.671c0-11.048 9.03-20.078 20.078-20.078h94.558l8.13-20.929H70.885c-7.529 0-13.675-6.147-13.675-13.676V13.676C57.21 6.146 63.356 0 70.885 0h149.908c7.529 0 13.676 6.147 13.676 13.676zm3.812 281.756c.156-1.379 1.089-2.639 2.532-4.006l-6.861-5.485c-.443-.254-.401-.536-.094-.842l1.712-1.16c.303-.143.612-.185.927-.06l8.936 2.549 8.499-7.375-16.384-13.948c-.419-.313-.423-.615.077-.909l2.781-1.756 22.372 9.051 7.63-6.537c2.508-1.727 4.83-2.366 6.491-1.756.915.337 1.215.654 1.408 1.569.372 1.794-.761 4.023-3.096 6.188l-8.051 6.012 3.928 23.811-2.322 2.33c-.396.42-.69.349-.904-.125l-10.022-19.04-9.059 6.673.53 9.277c.053.332-.052.625-.262.893l-1.508 1.415c-.361.233-.65.212-.8-.276l-3.848-7.897c-1.657 1.112-3.092 1.745-4.477 1.592-.126-.017-.149-.065-.135-.188zM256 229.914c14.634 0 27.884 5.933 37.475 15.524 9.59 9.59 15.523 22.84 15.523 37.475 0 14.634-5.933 27.883-15.523 37.474-9.591 9.59-22.841 15.523-37.475 15.523s-27.884-5.933-37.475-15.523c-9.59-9.591-15.523-22.84-15.523-37.474 0-14.635 5.933-27.885 15.523-37.475 9.591-9.591 22.841-15.524 37.475-15.524zm31.906 21.093c-8.165-8.165-19.446-13.215-31.906-13.215-12.46 0-23.741 5.05-31.906 13.215-8.164 8.164-13.215 19.446-13.215 31.906 0 12.459 5.051 23.74 13.215 31.905 8.165 8.164 19.446 13.215 31.906 13.215 12.46 0 23.741-5.051 31.906-13.215 8.164-8.165 13.215-19.446 13.215-31.905 0-12.46-5.051-23.742-13.215-31.906zM125.892 74.425c.176-1.551 1.226-2.97 2.851-4.509l-7.723-6.175c-.499-.285-.452-.603-.106-.947l1.927-1.307c.341-.16.689-.208 1.044-.067l10.059 2.87 9.568-8.303-18.444-15.701c-.472-.353-.477-.692.086-1.023l3.131-1.976 25.184 10.188 8.589-7.359c2.824-1.944 5.438-2.663 7.307-1.976 1.03.379 1.368.736 1.585 1.766.42 2.019-.857 4.528-3.485 6.965l-9.063 6.769 4.422 26.804-2.614 2.622c-.446.473-.777.393-1.017-.14L147.91 61.493l-10.197 7.511.596 10.444c.06.373-.058.703-.295 1.004l-1.697 1.593c-.407.263-.732.239-.901-.31l-4.331-8.889c-1.866 1.251-3.481 1.964-5.041 1.791-.141-.02-.167-.073-.152-.212zM23.078 175.809h465.845c8.876 0 16.139-5.262 16.139-14.138 0-8.877-7.269-14.139-16.139-14.139H23.078c-8.871 0-16.139 5.265-16.139 14.139 0 8.873 7.262 14.138 16.139 14.138zm18.715 6.797h428.414V363.83H41.793V182.606zm316.42-116.055c-.568 0-1.029-.48-1.029-1.072 0-.592.461-1.072 1.029-1.072h48.269c.569 0 1.03.48 1.03 1.072 0 .592-.461 1.072-1.03 1.072h-48.269zm0 13.274c-.568 0-1.029-.48-1.029-1.071 0-.592.461-1.072 1.029-1.072h48.269c.569 0 1.03.48 1.03 1.072 0 .591-.461 1.071-1.03 1.071h-48.269zm0-6.637c-.568 0-1.029-.48-1.029-1.072 0-.592.461-1.072 1.029-1.072h48.269c.569 0 1.03.48 1.03 1.072 0 .592-.461 1.072-1.03 1.072h-48.269zm70.826-8.465v19.905h-8.044V58.64c3.123-.044 8.044 2.551 8.044 6.083zm-96.675 24.336h99.968c13.413 0 24.388 10.976 24.388 24.388v14.411H307.976v-14.411c0-13.413 10.974-24.388 24.388-24.388zm73.641 19.189a2.35 2.35 0 110 4.702 2.35 2.35 0 010-4.702zm-11.828 0a2.35 2.35 0 11-.001 4.701 2.35 2.35 0 01.001-4.701zm-11.829 0a2.352 2.352 0 11-.001 4.703 2.352 2.352 0 01.001-4.703zm-11.829 0a2.352 2.352 0 11-.001 4.703 2.352 2.352 0 01.001-4.703zm-11.829 0a2.35 2.35 0 110 4.702 2.35 2.35 0 010-4.702zm47.315 9.667a2.35 2.35 0 11.001 4.7 2.35 2.35 0 01-.001-4.7zm-11.828 0a2.35 2.35 0 010 4.702 2.352 2.352 0 110-4.702zm-11.829 0a2.35 2.35 0 110 4.702 2.35 2.35 0 010-4.702zm-11.829 0a2.35 2.35 0 110 4.702 2.35 2.35 0 010-4.702zm-11.829 0a2.35 2.35 0 11.001 4.7 2.35 2.35 0 01-.001-4.7zm-5.075-60.864h57.466a4.72 4.72 0 014.706 4.706v22.871h-66.879V61.757a4.72 4.72 0 014.707-4.706zm-17.959 7.672v19.905h8.045V58.64c-3.123-.044-8.045 2.551-8.045 6.083zM70.458 9.624H221.22a3.152 3.152 0 013.14 3.139V107.9a3.156 3.156 0 01-3.14 3.14H70.458a3.152 3.152 0 01-3.139-3.14V12.763a3.148 3.148 0 013.139-3.139z"/></svg>