<?xml version="1.0" ?><!DOCTYPE svg  PUBLIC '-//W3C//DTD SVG 1.1//EN'  'http://www.w3.org/Graphics/SVG/1.1/DTD/svg11.dtd'><!-- Uploaded to: SVG Repo, www.svgrepo.com, Generator: SVG Repo Mixer Tools -->
<svg fill="#000000" width="800px" height="800px" viewBox="0 0 512 512" enable-background="new 0 0 512 512" id="x-ray_x5F_machine" version="1.1" xml:space="preserve" xmlns="http://www.w3.org/2000/svg" xmlns:xlink="http://www.w3.org/1999/xlink"><path d="M453.379,73.803H240.625c-7.465,0-13.517,6.052-13.517,13.517v26.73v160.718v4.147v20.416v29.097v46.605v63.163h239.789  V299.332v-21.246V114.05V87.32C466.896,79.855,460.845,73.803,453.379,73.803z M371.146,86.43c4.14,0,7.496,3.356,7.496,7.497  s-3.356,7.497-7.496,7.497c-4.141,0-7.498-3.356-7.498-7.497S367.006,86.43,371.146,86.43z M319.432,86.43  c4.141,0,7.498,3.356,7.498,7.497s-3.357,7.497-7.498,7.497s-7.496-3.356-7.496-7.497S315.291,86.43,319.432,86.43z M437.8,278.086  v21.246H256.205v-20.416V114.05H437.8V278.086z"/><path d="M74.2,328.429h141.34v-29.097H59.028c-7.69,0-13.924,6.234-13.924,13.924v15.173v109.769H74.2V328.429z"/><path d="M301.515,190.825c13.383,9.438,29.108,14.426,45.476,14.426c16.377,0,32.111-4.995,45.501-14.445  c3.009-2.125,3.786-6.193,1.761-9.271c-1.254-1.906-3.364-3.045-5.646-3.045c-1.4,0-2.748,0.429-3.896,1.239  c-11.101,7.841-24.144,11.986-37.72,11.986c-13.567,0-26.604-4.139-37.699-11.97c-1.146-0.809-2.493-1.237-3.893-1.237  c-2.282,0-4.393,1.138-5.652,3.053C297.727,184.632,298.504,188.701,301.515,190.825z"/><path d="M315.764,165.005c9.119,6.68,19.918,10.211,31.227,10.211c11.32,0,22.127-3.538,31.252-10.232  c2.901-2.128,3.621-6.157,1.635-9.178c-1.25-1.901-3.359-3.036-5.641-3.036c-1.462,0-2.863,0.459-4.05,1.328  c-6.782,4.96-14.804,7.583-23.196,7.583c-8.385,0-16.398-2.617-23.177-7.567c-1.187-0.867-2.586-1.325-4.047-1.325  c-2.281,0-4.39,1.135-5.645,3.043C312.139,158.848,312.859,162.877,315.764,165.005z"/><path d="M329.438,139.679c4.932,4.077,11.165,6.323,17.553,6.323c6.4,0,12.645-2.254,17.582-6.347  c2.666-2.21,3.244-6.055,1.346-8.942c-1.261-1.917-3.381-3.062-5.672-3.062c-1.556,0-3.068,0.549-4.258,1.544  c-2.522,2.109-5.719,3.271-8.998,3.271c-3.274,0-6.465-1.157-8.984-3.258c-1.188-0.991-2.697-1.537-4.25-1.537  c-2.291,0-4.411,1.144-5.672,3.061C326.184,133.624,326.765,137.47,329.438,139.679z"/><path d="M416.914,244.644c0-7.271-5.895-13.167-13.167-13.167H290.256c-7.272,0-13.168,5.895-13.168,13.167v8.502h139.826V244.644z"/><path d="M287.496,286.705h119.011c5.747,0,10.407-4.658,10.407-10.406v-11.586h-18.586v2.913c0,3.944-3.197,7.143-7.143,7.143  h-6.844c-3.943,0-7.142-3.198-7.142-7.143v-2.913h-60.397v2.913c0,3.944-3.198,7.143-7.143,7.143h-6.844  c-3.944,0-7.143-3.198-7.143-7.143v-2.913h-18.586v11.586C277.088,282.047,281.748,286.705,287.496,286.705z"/></svg>