<?xml version="1.0" encoding="iso-8859-1"?>
<!-- Uploaded to: SVG Repo, www.svgrepo.com, Generator: SVG Repo Mixer Tools -->
<svg fill="#000000" height="800px" width="800px" version="1.1" id="Capa_1" xmlns="http://www.w3.org/2000/svg" xmlns:xlink="http://www.w3.org/1999/xlink" 
	 viewBox="0 0 60 60" xml:space="preserve">
<g>
	<path d="M54.963,0H23.037C20.26,0,18,2.243,18,5v25h-3.371l2.287-6.863c0.165-0.494,0.082-1.041-0.223-1.462
		c-0.204-0.283-0.496-0.481-0.822-0.587l-3.762-6.584c-0.273-0.479-0.885-0.647-1.364-0.372c-0.479,0.274-0.646,0.885-0.372,1.364
		L13.518,21H4.859l3.244-5.491c0.28-0.476,0.123-1.089-0.353-1.37c-0.476-0.28-1.089-0.123-1.37,0.352l-3.933,6.658
		c-0.258,0.116-0.489,0.291-0.658,0.526c-0.305,0.422-0.388,0.969-0.223,1.462L3.854,30H0v11h18v2H0v17h5V46c0-0.552,0.447-1,1-1
		s1,0.448,1,1v14h2V46c0-0.552,0.447-1,1-1s1,0.448,1,1v14h2V46c0-0.552,0.447-1,1-1s1,0.448,1,1v14h4h1h4c0.553,0,1-0.448,1-1V7h28
		v52c0,0.552,0.447,1,1,1h5c0.553,0,1-0.448,1-1V5C60,2.243,57.74,0,54.963,0z"/>
	<path d="M43.393,20.781C44.418,19.505,45,17.816,45,16c0-3.86-2.691-7-6-7s-6,3.14-6,7c0,1.816,0.582,3.505,1.607,4.781
		C29.748,22.335,27,25.275,27,29c0,5.278,0.003,13.897,5,14.899v6.318c0,1.956,0.313,3.886,0.932,5.739l0.599,1.797
		C33.979,59.097,35.231,60,36.648,60h4.703c1.417,0,2.67-0.903,3.118-2.248l0.599-1.796C45.687,54.103,46,52.172,46,50.217v-6.318
		c4.997-1.002,5-9.621,5-14.899C51,25.274,48.252,22.335,43.393,20.781z M46,41.803V31c0-0.552-0.447-1-1-1s-1,0.448-1,1v19.217
		c0,1.74-0.278,3.458-0.828,5.107l-0.599,1.796C42.397,57.646,41.906,58,41.352,58H40V41c0-0.552-0.447-1-1-1s-1,0.448-1,1v17
		h-1.352c-0.555,0-1.046-0.354-1.222-0.879l-0.599-1.797C34.278,53.675,34,51.957,34,50.217V31c0-0.552-0.447-1-1-1s-1,0.448-1,1
		v10.803c-2.456-0.992-3-5.861-3-12.803c0-4.424,5.376-6.174,7.688-6.721c0.41-0.098,0.726-0.427,0.804-0.838l0.089-0.706
		l-0.528-0.371C35.787,19.475,35,17.802,35,16c0-2.757,1.794-5,4-5s4,2.243,4,5c0,1.802-0.787,3.475-2.051,4.362
		c-0.347,0.242-0.521,0.665-0.441,1.078l0.174,0.689l0.631,0.149C43.624,22.826,49,24.576,49,29C49,35.942,48.456,40.811,46,41.803z
		"/>
</g>
</svg>