<?xml version="1.0" encoding="iso-8859-1"?>
<!-- Uploaded to: SVG Repo, www.svgrepo.com, Generator: SVG Repo Mixer Tools -->
<!DOCTYPE svg PUBLIC "-//W3C//DTD SVG 1.1//EN" "http://www.w3.org/Graphics/SVG/1.1/DTD/svg11.dtd">
<svg fill="#000000" version="1.1" id="Capa_1" xmlns="http://www.w3.org/2000/svg" xmlns:xlink="http://www.w3.org/1999/xlink" 
	 width="800px" height="800px" viewBox="0 0 124.388 124.388"
	 xml:space="preserve">
<g>
	<g>
		<path d="M0.914,78.533h3.018v44.791h61.444V78.533h3.333V66.062H0.914V78.533z M17.402,87.023
			c-0.386-0.231-0.412-0.639-0.057-0.914l2.979-2.312c0.357-0.274,0.982-0.364,1.403-0.203l15.885,6.166l8.855-8.368
			c1.636-1.543,3.88-2.574,5.009-2.312c0.431,0.101,0.837,0.338,1.186,0.652l0.008,0.01c0.316,0.35,0.554,0.756,0.654,1.187
			c0.265,1.132-0.77,3.372-2.311,5.009l-8.37,8.855l6.166,15.884c0.162,0.422,0.072,1.048-0.204,1.403l-2.31,2.98
			c-0.276,0.354-0.684,0.328-0.913-0.058l-8.524-14.367l-8.922,8.382c-0.165,0.115-0.661,0.629-0.661,0.629s0.012,0.307,0.042,0.553
			l0.409,3.182l-2.383,3.082c-0.031-0.042-0.065-0.087-0.093-0.141l-1.857-3.457c-0.218-0.448-0.036-0.748,0.132-0.903
			c-0.199,0.097-0.574,0.255-1.24,0.476c0,0-2.079,0.85-2.617,0.311l-0.009-0.01c-0.531-0.531,0.312-2.617,0.312-2.617
			c0.22-0.668,0.378-1.041,0.474-1.238c-0.155,0.167-0.456,0.35-0.906,0.132l-3.456-1.858c-0.054-0.025-0.097-0.062-0.141-0.092
			l3.083-2.385l3.18,0.408c0.245,0.031,0.555,0.047,0.555,0.047s0.513-0.499,0.629-0.663l8.381-8.921L17.402,87.023z"/>
		<circle cx="99.167" cy="20.642" r="11.975"/>
		<path d="M120.895,78.833v-4.226c1.766-0.884,2.836-2.824,2.525-4.884c-3.973-26.439-16.506-34.209-16.525-34.22
			c-1.427-1.027-3.068-1.781-4.746-2.191c0,0-1.269-0.268-2.861-0.268c-1.594,0-3.014,0.232-3.014,0.232
			c-0.01,0.004-0.021,0.004-0.029,0.008c-1.653,0.394-3.27,1.123-4.684,2.119c-0.088,0.046-14.271,9.218-16.732,34.319
			c-0.252,2.555,1.312,4.922,3.847,5.332c0.251,0.04,0.501,0.059,0.748,0.059c2.241,0,4.214-1.623,4.583-3.904
			c0.919-5.684,1.846-10.193,2.904-13.835v12.778c0,1.25,0.391,2.867,0.816,3.938l-0.052,44.802c0,3.035,2.46,5.495,5.495,5.495
			c3.033,0,5.494-2.462,5.494-5.495l-0.002-38.205c0.217,0.012,0.434,0.028,0.654,0.028c0.041,0,0.084-0.004,0.127-0.006
			l-0.002,38.183c0,3.033,2.459,5.495,5.494,5.495c0.002,0,0.002,0,0.002,0c3.032,0,5.493-2.462,5.493-5.495l0.002-44.742
			c0.72-1.334,0.989-2.344,0.989-3.998V57.662c1.023,3.592,1.924,8.013,2.82,13.547c0.308,1.902,1.736,3.333,3.498,3.762v3.861
			h-2.207v24.595h7.94V78.833H120.895z"/>
		<path d="M81.039,42.962l-6.178-9.671l-13.982,8.932l2.557,4.004c-3.341,0.765-6.267-1.517-11.522-7.952
			c-2.549-3.119-6.597-6.897-8.334-7.961l-19.04,33.068h23.074V48.556c3.8,3.99,8.629,7.895,14.688,7.895
			c2.15,0,4.457-0.491,6.926-1.645c2.293-1.071,3.377-3.65,2.668-6.005L81.039,42.962z M65.27,45.584l-1.779-2.785l10.795-6.895
			l4.141,6.481l-7.406,4.731C69.668,45.423,67.348,44.768,65.27,45.584z"/>
		<path d="M9.832,63.382h9.96c-0.245-7.627,1.291-10.214,1.291-10.214V61.8l19.308-33.535c-0.812-0.386-1.657-0.686-2.512-0.914
			c4.895-1.67,8.331-6.666,9.192-11.817c0.901-0.937,0.83-1.964,0.516-2.775c2.006-0.382,2.779-0.903,2.779-1.746
			c0-0.927-0.935-1.465-3.423-1.856l-0.219-0.722c3.222-0.896,5.219-2.132,5.219-3.503C51.943,2.208,44.066,0,34.347,0
			C24.63,0,16.751,2.208,16.751,4.932c0,1.371,1.997,2.608,5.22,3.503l-0.237,0.781c-2.217,0.387-3.064,0.915-3.064,1.796
			c0,0.799,0.693,1.307,2.465,1.684c-0.334,0.818-0.434,1.875,0.49,2.838c0.861,5.156,4.306,10.156,9.208,11.821
			c-1.552,0.415-3.069,1.086-4.427,1.989C21.579,32.209,10.208,42.27,9.832,63.382z M24.009,17.411
			c2.491,0.896,5.896,1.327,10.34,1.327c4.442,0,7.848-0.431,10.338-1.325c-1.521,4.65-5.347,8.634-10.338,8.634
			C29.356,26.047,25.53,22.063,24.009,17.411z"/>
	</g>
</g>
</svg>