<?xml version="1.0" encoding="iso-8859-1"?>
<!-- Uploaded to: SVG Repo, www.svgrepo.com, Generator: SVG Repo Mixer Tools -->
<svg fill="#000000" height="800px" width="800px" version="1.1" id="Layer_1" xmlns="http://www.w3.org/2000/svg" xmlns:xlink="http://www.w3.org/1999/xlink" 
	 viewBox="0 0 512 512" xml:space="preserve">
<g>
	<g>
		<path d="M350.263,142.507c-2.584-2.584-5.355-4.866-8.258-6.879c-0.218-0.172-0.446-0.329-0.679-0.473
			c-23.331-15.711-55.337-13.268-75.959,7.353c-17.689,17.688-22,43.758-12.95,65.544c0.126,0.358,0.273,0.71,0.456,1.051
			c2.91,6.643,7.064,12.87,12.495,18.3c11.703,11.703,27.076,17.554,42.448,17.554c15.373,0,30.746-5.852,42.448-17.554
			C373.669,203.996,373.669,165.912,350.263,142.507z M263.488,192.551c-2.363-13.903,1.797-28.709,12.507-39.418
			c8.775-8.774,20.296-13.16,31.822-13.16c5.442,0,10.88,0.991,16.033,2.948L263.488,192.551z M275.993,216.776
			c-2.819-2.819-5.179-5.925-7.092-9.22l68.603-56.407c0.726,0.638,1.441,1.292,2.133,1.985c2.463,2.463,4.568,5.149,6.339,7.985
			l-68.921,56.668C276.7,217.452,276.341,217.123,275.993,216.776z M339.637,216.777c-13.326,13.326-32.994,16.52-49.374,9.605
			l61.579-50.631C354.822,190.11,350.76,205.654,339.637,216.777z"/>
	</g>
</g>
<g>
	<g>
		<path d="M462.962,308.403l-81.684-81.684c7.184-12.59,11.03-26.878,11.03-41.765c0-22.569-8.789-43.786-24.748-59.745
			c-23.215-23.215-56.683-30.047-85.957-20.543c-9.854-6.215-20.789-10.291-32.182-12.048V37.478h15.103
			c4.15,0,7.514-3.364,7.514-7.514V7.514c0-4.15-3.364-7.514-7.514-7.514H103.742c-4.15,0-7.514,3.364-7.514,7.514v22.449
			c0,4.15,3.364,7.514,7.514,7.514h15.103V92.6c-40.718,6.231-72.008,41.492-72.008,83.924v236.174
			c0,21.821,17.753,39.575,39.575,39.575h12.649c-1.848,3.602-2.898,7.677-2.898,11.997v21.354
			c0,14.544,11.833,26.377,26.378,26.377c14.544,0,26.377-11.833,26.377-26.377v-21.354c0-4.319-1.05-8.395-2.897-11.997h76.228
			c-1.847,3.602-2.897,7.677-2.897,11.997v21.354c0,14.544,11.833,26.377,26.378,26.377c14.544,0,26.377-11.833,26.377-26.377
			v-21.354c0-4.319-1.05-8.395-2.898-11.997h12.649c21.821,0,39.575-17.753,39.575-39.575v-144.41
			c9.768-1.583,19.305-4.879,28.131-9.892l81.704,81.704c1.409,1.41,3.32,2.201,5.313,2.201c1.993,0,3.904-0.792,5.313-2.201
			l21.071-21.071C465.896,316.096,465.896,311.338,462.962,308.403z M111.256,22.449v-7.421h145.756v7.421h-15.103h-22.449H148.81
			h-22.45H111.256z M234.394,37.478v54.144h-7.421V37.478H234.394z M211.945,37.478v54.144h-55.621V37.478H211.945z M141.296,37.478
			v54.144h-7.422V37.478H141.296z M133.89,485.623c0,6.258-5.092,11.348-11.348,11.348c-6.258,0-11.349-5.092-11.349-11.348v-21.354
			c0-6.258,5.092-11.348,11.349-11.348s11.348,5.092,11.348,11.348V485.623z M257.077,485.623L257.077,485.623
			c-0.001,6.258-5.093,11.348-11.349,11.348c-6.258,0-11.348-5.092-11.348-11.348v-21.354c0-6.258,5.092-11.348,11.349-11.348
			s11.348,5.092,11.348,11.348V485.623z M306.402,412.698c0,13.534-11.012,24.546-24.546,24.546H86.412
			c-13.534,0-24.546-11.012-24.546-24.546V176.524c0-38.529,31.345-69.874,69.874-69.874h17.07h70.649h17.069
			c9.641,0,19.098,2.006,27.846,5.839c-5.813,3.484-11.298,7.717-16.303,12.72c-32.943,32.943-32.943,86.546,0,119.489
			c2.852,2.852,5.869,5.441,9.004,7.8v136.86c0,4.15,3.364,7.514,7.514,7.514s7.514-3.364,7.514-7.514V261.532
			c10.848,5.047,22.556,7.647,34.298,7.842V412.698z M258.698,234.072c-27.084-27.084-27.084-71.152,0-98.236
			c13.543-13.542,31.33-20.312,49.118-20.312c17.788,0,35.576,6.771,49.119,20.313c13.12,13.12,20.345,30.564,20.345,49.118
			s-7.226,35.998-20.345,49.118C329.85,261.155,285.782,261.155,258.698,234.072z M436.578,324.161l-74.24-74.24l10.444-10.444
			l74.24,74.24L436.578,324.161z"/>
	</g>
</g>
<g>
	<g>
		<path d="M103.678,169.111c-4.15,0-7.514,3.364-7.514,7.514v212.734c0,4.15,3.364,7.514,7.514,7.514
			c4.15,0,7.514-3.364,7.514-7.514V176.625C111.192,172.474,107.827,169.111,103.678,169.111z"/>
	</g>
</g>
<g>
	<g>
		<path d="M157.315,169.111c-4.15,0-7.514,3.364-7.514,7.514v212.734c0,4.15,3.364,7.514,7.514,7.514s7.514-3.364,7.514-7.514
			V176.625C164.829,172.474,161.466,169.111,157.315,169.111z"/>
	</g>
</g>
<g>
	<g>
		<path d="M210.953,169.111c-4.15,0-7.514,3.364-7.514,7.514v212.734c0,4.15,3.364,7.514,7.514,7.514
			c4.15,0,7.514-3.364,7.514-7.514V176.625C218.467,172.474,215.103,169.111,210.953,169.111z"/>
	</g>
</g>
</svg>